<?xml version="1.0" encoding="UTF-8"?>
<svg version="1.1" xmlns="http://www.w3.org/2000/svg" width="500" height="500">
<path d="M0 0 C9.30595307 5.10272972 17.39143773 11.62920531 25 19 C25.598125 19.52464844 26.19625 20.04929687 26.8125 20.58984375 C40.27940837 32.84098956 48.50065763 51.7525209 53 69 C53.32097656 70.20462891 53.32097656 70.20462891 53.6484375 71.43359375 C54.82717387 76.49874349 55.34806172 81.63427439 55.75 86.8125 C55.81348633 87.53671143 55.87697266 88.26092285 55.94238281 89.00708008 C56.20541819 93.2758867 55.91524359 96.74020136 54.69921875 100.8515625 C53.19220227 106.51908766 52.07665716 111.30277651 54 117 C60.52528138 127.15677091 70.8801627 135.2565161 80 143 C90.53688394 138.47368032 101.65138784 126.46363818 108 117 C109.97761487 110.51153977 108.46737637 104.70161076 106.57861328 98.37182617 C101.76325576 78.63292393 111.74026179 54.18339023 121.72265625 37.58203125 C124.77114751 32.70061065 128.12148953 28.25539753 132 24 C132.43151367 23.5261084 132.86302734 23.0522168 133.30761719 22.56396484 C147.58483316 7.0895293 165.51555817 -3.89902497 186 -9 C187.24330078 -9.33644531 187.24330078 -9.33644531 188.51171875 -9.6796875 C194.83745205 -11.1295416 201.22447626 -11.26541932 207.6875 -11.375 C209.02458008 -11.41415527 209.02458008 -11.41415527 210.38867188 -11.45410156 C216.39685178 -11.46975951 221.02435012 -10.49155731 226 -7 C229.31749551 -3.68692389 231.28011226 -0.70165447 231.5625 4.0625 C230.38078321 12.33451752 223.94714535 17.24132906 218.18359375 22.80078125 C216.43236072 24.51698445 214.68172797 26.23380037 212.93164062 27.95117188 C210.18396406 30.63695388 207.4319975 33.3178181 204.66918945 35.98803711 C201.99362046 38.57865983 199.33755184 41.18804786 196.68359375 43.80078125 C195.85854843 44.58858475 195.03350311 45.37638824 194.18345642 46.18806458 C188.20223248 52.11546123 185.60261562 57.15735916 184.56640625 65.484375 C184.54778878 81.04858135 189.56085723 93.42983449 200.25 104.75 C211.22107818 115.1095147 223.49173111 120.45365334 238.63671875 120.43359375 C249.08291552 119.08687152 254.57529807 115.40613722 261.8046875 107.80859375 C262.69108917 106.9075441 263.57749084 106.00649445 264.49075317 105.07814026 C266.82669779 102.69887539 269.14678873 100.30622614 271.45953369 97.90454102 C274.7301196 94.51478624 278.0266435 91.15030863 281.32351685 87.78614807 C283.07331736 85.99773857 284.81647917 84.20280415 286.55221558 82.40074158 C287.34048737 81.58972488 288.12875916 80.77870819 288.94091797 79.94311523 C289.97489212 78.8708091 289.97489212 78.8708091 291.02975464 77.77684021 C294.77861605 74.3959782 297.87061644 73.5356503 302.9765625 73.6875 C307.81142595 74.43419706 310.47981705 77.31110907 313.3125 81.0625 C319.80731953 92.36829696 316.36801754 109.88024491 313.1875 121.92578125 C305.38581038 149.2890603 287.042487 172.23971115 262.2109375 186.1640625 C249.40512391 193.04591436 235.11923904 198.1179604 220.45703125 198.1328125 C219.21759766 198.13410156 217.97816406 198.13539063 216.70117188 198.13671875 C215.41791016 198.13285156 214.13464844 198.12898437 212.8125 198.125 C211.54857422 198.12886719 210.28464844 198.13273438 208.98242188 198.13671875 C207.73654297 198.13542969 206.49066406 198.13414062 205.20703125 198.1328125 C203.9845166 198.1318457 202.76200195 198.13087891 201.50244141 198.12988281 C198.23800946 198.00882623 195.22364077 197.5488255 192.01171875 196.9921875 C188.29135492 196.61834082 188.29135492 196.61834082 185.11816406 198.36376953 C183.38416334 200.31582976 183.38416334 200.31582976 181.79638672 202.5546875 C179.79104332 205.28444009 177.569577 207.55837763 175.16015625 209.9375 C173.9081543 211.18466797 173.9081543 211.18466797 172.63085938 212.45703125 C171.78330078 213.29621094 170.93574219 214.13539063 170.0625 215 C169.18787109 215.87011719 168.31324219 216.74023438 167.41210938 217.63671875 C165.27702551 219.76013549 163.13962795 221.88116378 161 224 C164.44866696 227.94780602 167.96184818 231.82109618 171.546875 235.64550781 C172.75270561 236.95118017 173.93990712 238.2743405 175.10644531 239.61523438 C181.51548287 247.34071099 181.51548287 247.34071099 190.32232666 251.38134766 C195.06657927 251.41473857 199.54395459 250.55749013 204.13414001 249.42388916 C223.89872022 244.93373911 250.29967143 254.27059654 266.6875 264.3125 C272.44673947 268.16045001 277.79285852 272.43792231 283 277 C283.76054687 277.66386719 284.52109375 278.32773437 285.3046875 279.01171875 C303.71567588 296.2105958 315.05652623 322.04355715 316.23828125 347.12109375 C316.48729265 356.96887509 316.21000793 363.17389335 309.4375 370.9375 C306.44073241 373.47322642 304.57905307 373.94537235 300.6875 374.3125 C292.60457937 373.62750673 287.53717666 366.71751955 282.19921875 361.18359375 C280.48301555 359.43236072 278.76619963 357.68172797 277.04882812 355.93164062 C274.36304612 353.18396406 271.6821819 350.4319975 269.01196289 347.66918945 C266.42134017 344.99362046 263.81195214 342.33755184 261.19921875 339.68359375 C260.41141525 338.85854843 259.62361176 338.03350311 258.81193542 337.18345642 C252.78281191 331.09958182 247.69046768 328.49069508 239.19140625 327.6015625 C231.62082784 327.65045752 225.00151174 328.00427121 218 331 C217.13117188 331.36738281 216.26234375 331.73476563 215.3671875 332.11328125 C201.32393493 338.89485194 191.37799982 351.56431626 186 366 C183.90036634 374.48601939 183.75926857 384.82772074 187 393 C191.50058894 398.91065644 196.97509091 404.07396422 202.26953125 409.26171875 C203.83296541 410.80765644 205.39610808 412.35388897 206.95898438 413.90039062 C209.3961174 416.30645224 211.83551344 418.71008082 214.2800293 421.10864258 C216.6582755 423.44461096 219.02701453 425.78988343 221.39453125 428.13671875 C222.49448174 429.20873787 222.49448174 429.20873787 223.61665344 430.30241394 C224.29463486 430.97694107 224.97261627 431.6514682 225.67114258 432.34643555 C226.26735916 432.93297409 226.86357574 433.51951263 227.4778595 434.12382507 C230.09151255 437.34538728 230.92918406 440.35085393 231.375 444.4375 C230.83252701 449.59099341 229.19915855 452.2105348 225.17578125 455.484375 C214.19766873 462.30498243 198.53667316 459.73370759 186.5546875 456.9765625 C159.30920091 449.49153871 135.42923033 433.69304135 121 409 C110.41439293 390.20011361 100.99548772 364.46626238 106.91333008 342.62988281 C108.65471196 335.81193535 108.65471196 335.81193535 107.06265259 329.15969849 C103.74881629 324.56351236 99.52111721 320.87864623 95.3125 317.125 C94.07243022 315.95316566 92.83605784 314.77740558 91.60351562 313.59765625 C85.9242698 307.82401255 85.9242698 307.82401255 79 304 C78.6596875 304.8353125 78.6596875 304.8353125 78.3125 305.6875 C76.62449964 308.66159588 74.53323483 310.72008865 72 313 C71.34 313 70.68 313 70 313 C69.731875 313.639375 69.46375 314.27875 69.1875 314.9375 C68 317 68 317 65 318 C64.67 318.66 64.34 319.32 64 320 C63.67 320.66 63.34 321.32 63 322 C62.01 322.33 61.02 322.66 60 323 C59.31513275 324.32407669 58.65129797 325.65909241 58 327 C57.30261719 327.54140625 56.60523438 328.0828125 55.88671875 328.640625 C53.61333637 330.97199324 53.61333637 330.97199324 54.046875 334.65234375 C54.26233424 336.08370459 54.4978533 337.5121444 54.75 338.9375 C54.9741901 340.47447673 55.19290006 342.01226233 55.40625 343.55078125 C55.51324219 344.3082666 55.62023437 345.06575195 55.73046875 345.84619141 C58.85724547 370.83208291 50.247166 397.69888238 35.0625 417.48046875 C16.51248857 440.14099408 -7.5253549 455.56235241 -37 459 C-56.83985359 460.49725943 -56.83985359 460.49725943 -65 454 C-68.5636581 450.1817949 -69.44713165 447.17210125 -69.53125 442.125 C-67.76939935 435.07759739 -61.18848441 430.02687577 -56.18359375 425.19921875 C-54.43236072 423.48301555 -52.68172797 421.76619963 -50.93164062 420.04882812 C-48.18396406 417.36304612 -45.4319975 414.6821819 -42.66918945 412.01196289 C-39.99362046 409.42134017 -37.33755184 406.81195214 -34.68359375 404.19921875 C-33.85854843 403.41141525 -33.03350311 402.62361176 -32.18345642 401.81193542 C-26.11469362 395.79778771 -23.54713882 390.71722391 -22.56640625 382.26171875 C-22.54919043 366.50924015 -27.88158076 354.94242271 -38 343 C-48.12404429 333.32342728 -59.83386354 327.8552014 -73.8125 327.75 C-74.48603516 327.729375 -75.15957031 327.70875 -75.85351562 327.6875 C-83.58050944 327.62834598 -89.02156322 329.76545432 -94.60839844 335.07250977 C-96.28803551 336.76636276 -97.95439969 338.47344951 -99.609375 340.19140625 C-100.49860657 341.0924559 -101.38783813 341.99350555 -102.30401611 342.92185974 C-104.65253102 345.30449429 -106.99013523 347.69679341 -109.32220459 350.09545898 C-112.61599953 353.47978999 -115.92547516 356.84868092 -119.23883057 360.21385193 C-120.9988725 362.00309177 -122.75312054 363.79805342 -124.50091553 365.59925842 C-125.69300629 366.81578346 -125.69300629 366.81578346 -126.90917969 368.05688477 C-127.6045282 368.77175552 -128.29987671 369.48662628 -129.01629639 370.22315979 C-132.14067317 373.02172217 -134.24763543 373.93160322 -138.4375 374.3125 C-143.86695868 373.83623169 -146.0491034 372.03935209 -149.6875 368.0625 C-156.40295062 359.16906539 -154.98574245 347.26289016 -153.71142578 336.58105469 C-149.09236255 308.46986987 -132.1814993 283.7774094 -109.33984375 267.16796875 C-92.69540202 256.36368202 -73.857986 249.97313255 -54 249 C-52.87658203 248.938125 -52.87658203 248.938125 -51.73046875 248.875 C-47.66850362 248.76428204 -43.98345165 248.95834632 -40.02807617 249.90844727 C-31.90272498 251.75995547 -31.90272498 251.75995547 -23.97640991 250.04177856 C-19.27508817 246.74995951 -15.60779911 242.44019049 -11.875 238.125 C-10.70929857 236.85877911 -9.53874613 235.59700622 -8.36328125 234.33984375 C-5.51698289 231.27499888 -2.74307758 228.15743976 0 225 C-1.57809286 221.09653753 -4.25440135 218.52049603 -7.2265625 215.6484375 C-7.73424164 215.1483316 -8.24192078 214.64822571 -8.76498413 214.13296509 C-10.3802486 212.54205899 -12.00179109 210.95779707 -13.625 209.375 C-15.76869442 207.28432983 -17.905806 205.18725101 -20.0390625 203.0859375 C-20.53588531 202.60571136 -21.03270813 202.12548523 -21.54458618 201.63070679 C-22.73459372 200.45801497 -23.87274056 199.23313025 -25 198 C-25 197.34 -25 196.68 -25 196 C-25.63019043 196.14002441 -26.26038086 196.28004883 -26.90966797 196.42431641 C-44.7424895 200.06163311 -64.68240283 199.87593919 -82 194 C-82.63502441 193.78569336 -83.27004883 193.57138672 -83.92431641 193.35058594 C-98.03794935 188.4671481 -110.35277225 181.56532599 -121 171 C-121.845625 170.195625 -122.69125 169.39125 -123.5625 168.5625 C-124.366875 167.716875 -125.17125 166.87125 -126 166 C-126.65355469 165.34128906 -127.30710937 164.68257812 -127.98046875 164.00390625 C-145.24035145 145.91222197 -155.19641237 119.97243011 -155 95 C-154.5468751 87.34508153 -152.65355181 81.39657218 -147 76 C-143.23394729 73.70270785 -139.31634553 73.09372104 -135 74 C-129.15873774 77.33369418 -124.86579766 81.99590561 -120.234375 86.81640625 C-118.52288973 88.56779474 -116.81062576 90.31842254 -115.09765625 92.06835938 C-112.41928797 94.81473022 -109.74668455 97.56594708 -107.08740234 100.33081055 C-104.50658787 103.00882949 -101.90382131 105.6638514 -99.296875 108.31640625 C-98.51423279 109.14145157 -97.73159058 109.96649689 -96.92523193 110.81654358 C-90.80704731 116.99090106 -85.34538707 119.33750974 -76.78515625 120.3984375 C-61.12752709 120.2636516 -49.21913291 114.60223926 -37.8984375 104.0390625 C-29.23908698 95.04537413 -22.73467289 82.31410922 -22.6875 69.6875 C-22.66236328 68.14642578 -22.66236328 68.14642578 -22.63671875 66.57421875 C-23.71039982 56.01058245 -27.56968911 50.44770422 -35.19140625 43.1953125 C-36.0924559 42.30891083 -36.99350555 41.42250916 -37.92185974 40.50924683 C-40.30112461 38.17330221 -42.69377386 35.85321127 -45.09545898 33.54046631 C-48.48521376 30.2698804 -51.84969137 26.9733565 -55.21385193 23.67648315 C-57.00226143 21.92668264 -58.79719585 20.18352083 -60.59925842 18.44778442 C-61.41027512 17.65951263 -62.22129181 16.87124084 -63.05688477 16.05908203 C-63.77175552 15.36976593 -64.48662628 14.68044983 -65.22315979 13.97024536 C-68.6040218 10.22138395 -69.4643497 7.12938356 -69.3125 2.0234375 C-68.56580294 -2.81142595 -65.68889093 -5.47981705 -61.9375 -8.3125 C-44.5039706 -18.32750625 -16.42938819 -8.05678382 0 0 Z " fill="#0049AC" transform="translate(169,26)"/>
<path d="M0 0 C9.30595307 5.10272972 17.39143773 11.62920531 25 19 C25.598125 19.52464844 26.19625 20.04929687 26.8125 20.58984375 C40.27940837 32.84098956 48.50065763 51.7525209 53 69 C53.32097656 70.20462891 53.32097656 70.20462891 53.6484375 71.43359375 C54.82717387 76.49874349 55.34806172 81.63427439 55.75 86.8125 C55.81348633 87.53671143 55.87697266 88.26092285 55.94238281 89.00708008 C56.20541819 93.2758867 55.91524359 96.74020136 54.69921875 100.8515625 C53.19271185 106.51345809 52.07850339 111.30856034 54 117 C59.5691956 125.61558515 68.13067852 132.62468751 75.87191772 139.23222351 C79.89958826 142.69876479 79.89958826 142.69876479 81 146 C55.26 171.74 29.52 197.48 3 224 C-0.98109926 222.00945037 -3.56524381 219.72506874 -6.640625 216.625 C-7.16767029 216.09986816 -7.69471558 215.57473633 -8.23773193 215.03369141 C-9.34616928 213.92661117 -10.45210046 212.8170167 -11.55566406 211.70507812 C-13.25106301 209.99893025 -14.9569161 208.30375953 -16.6640625 206.609375 C-17.74022558 205.53189108 -18.81576851 204.45378733 -19.890625 203.375 C-20.40304749 202.86662598 -20.91546997 202.35825195 -21.44342041 201.83447266 C-25 198.22994091 -25 198.22994091 -25 196 C-25.63019043 196.14002441 -26.26038086 196.28004883 -26.90966797 196.42431641 C-44.7424895 200.06163311 -64.68240283 199.87593919 -82 194 C-82.63502441 193.78569336 -83.27004883 193.57138672 -83.92431641 193.35058594 C-98.03794935 188.4671481 -110.35277225 181.56532599 -121 171 C-121.845625 170.195625 -122.69125 169.39125 -123.5625 168.5625 C-124.366875 167.716875 -125.17125 166.87125 -126 166 C-126.65355469 165.34128906 -127.30710937 164.68257812 -127.98046875 164.00390625 C-145.24035145 145.91222197 -155.19641237 119.97243011 -155 95 C-154.5468751 87.34508153 -152.65355181 81.39657218 -147 76 C-143.23394729 73.70270785 -139.31634553 73.09372104 -135 74 C-129.15873774 77.33369418 -124.86579766 81.99590561 -120.234375 86.81640625 C-118.52288973 88.56779474 -116.81062576 90.31842254 -115.09765625 92.06835938 C-112.41928797 94.81473022 -109.74668455 97.56594708 -107.08740234 100.33081055 C-104.50658787 103.00882949 -101.90382131 105.6638514 -99.296875 108.31640625 C-98.51423279 109.14145157 -97.73159058 109.96649689 -96.92523193 110.81654358 C-90.80704731 116.99090106 -85.34538707 119.33750974 -76.78515625 120.3984375 C-61.12752709 120.2636516 -49.21913291 114.60223926 -37.8984375 104.0390625 C-29.23908698 95.04537413 -22.73467289 82.31410922 -22.6875 69.6875 C-22.66236328 68.14642578 -22.66236328 68.14642578 -22.63671875 66.57421875 C-23.71039982 56.01058245 -27.56968911 50.44770422 -35.19140625 43.1953125 C-36.0924559 42.30891083 -36.99350555 41.42250916 -37.92185974 40.50924683 C-40.30112461 38.17330221 -42.69377386 35.85321127 -45.09545898 33.54046631 C-48.48521376 30.2698804 -51.84969137 26.9733565 -55.21385193 23.67648315 C-57.00226143 21.92668264 -58.79719585 20.18352083 -60.59925842 18.44778442 C-61.41027512 17.65951263 -62.22129181 16.87124084 -63.05688477 16.05908203 C-63.77175552 15.36976593 -64.48662628 14.68044983 -65.22315979 13.97024536 C-68.6040218 10.22138395 -69.4643497 7.12938356 -69.3125 2.0234375 C-68.56580294 -2.81142595 -65.68889093 -5.47981705 -61.9375 -8.3125 C-44.5039706 -18.32750625 -16.42938819 -8.05678382 0 0 Z " fill="#38B5FE" transform="translate(169,26)"/>
<path d="M0 0 C4.08577003 1.56658938 6.44266974 4.51178685 9.2265625 7.734375 C19.88397504 21.08808593 19.88397504 21.08808593 34.30078125 28.20703125 C38.77598946 27.88737352 42.79378506 26.50190502 47 25 C72.2801281 22.24671872 99.25753693 32.92938104 118.625 48.375 C120.42985697 49.90120342 122.2221644 51.44240373 124 53 C124.76054687 53.66386719 125.52109375 54.32773437 126.3046875 55.01171875 C144.71567588 72.2105958 156.05652623 98.04355715 157.23828125 123.12109375 C157.48729265 132.96887509 157.21000793 139.17389335 150.4375 146.9375 C147.44073241 149.47322642 145.57905307 149.94537235 141.6875 150.3125 C133.60457937 149.62750673 128.53717666 142.71751955 123.19921875 137.18359375 C121.48301555 135.43236072 119.76619963 133.68172797 118.04882812 131.93164062 C115.36304612 129.18396406 112.6821819 126.4319975 110.01196289 123.66918945 C107.42134017 120.99362046 104.81195214 118.33755184 102.19921875 115.68359375 C101.41141525 114.85854843 100.62361176 114.03350311 99.81193542 113.18345642 C93.78281191 107.09958182 88.69046768 104.49069508 80.19140625 103.6015625 C72.62082784 103.65045752 66.00151174 104.00427121 59 107 C58.13117188 107.36738281 57.26234375 107.73476563 56.3671875 108.11328125 C42.32393493 114.89485194 32.37799982 127.56431626 27 142 C24.90036634 150.48601939 24.75926857 160.82772074 28 169 C32.50058894 174.91065644 37.97509091 180.07396422 43.26953125 185.26171875 C44.83296541 186.80765644 46.39610808 188.35388897 47.95898438 189.90039062 C50.3961174 192.30645224 52.83551344 194.71008082 55.2800293 197.10864258 C57.6582755 199.44461096 60.02701453 201.78988343 62.39453125 204.13671875 C63.49448174 205.20873787 63.49448174 205.20873787 64.61665344 206.30241394 C65.29463486 206.97694107 65.97261627 207.6514682 66.67114258 208.34643555 C67.26735916 208.93297409 67.86357574 209.51951263 68.4778595 210.12382507 C71.09151255 213.34538728 71.92918406 216.35085393 72.375 220.4375 C71.83252701 225.59099341 70.19915855 228.2105348 66.17578125 231.484375 C55.19766873 238.30498243 39.53667316 235.73370759 27.5546875 232.9765625 C0.30920091 225.49153871 -23.57076967 209.69304135 -38 185 C-48.77720869 165.85983189 -55.37222023 144.19377735 -53 122 C-52.690625 120.89438721 -52.38125 119.78877441 -52.0625 118.6496582 C-50.2892511 111.78445087 -50.2892511 111.78445087 -51.99978638 105.11154175 C-55.52613815 100.346344 -59.96441056 96.48560894 -64.375 92.5625 C-65.68872658 91.33416241 -66.99867002 90.10176545 -68.3046875 88.86523438 C-71.49467302 85.86148643 -74.73110896 82.9175854 -78 80 C-75.25180321 74.31159267 -71.52986553 70.47914513 -66.734375 66.47265625 C-63.53825929 63.75883728 -60.68094819 60.88523265 -58.125 57.5625 C-55.86729732 54.83997619 -53.43481806 52.72910167 -50.73046875 50.46875 C-47.32787685 47.58077132 -44.37435152 44.46074033 -41.5625 41 C-38.93248768 37.92096119 -36.1374966 35.54921599 -33 33 C-30.50149224 30.6204688 -28.22878255 28.29741732 -26.125 25.5625 C-23.86729732 22.83997619 -21.43481806 20.72910167 -18.73046875 18.46875 C-15.35070007 15.60014273 -12.4098303 12.50689537 -9.625 9.0625 C-6.80242724 5.59064533 -3.46228649 2.81373138 0 0 Z " fill="#38B5FD" transform="translate(328,250)"/>
<path d="M0 0 C0.66 0.66 1.32 1.32 2 2 C2.33 1.34 2.66 0.68 3 0 C3.99 0.33 4.98 0.66 6 1 C6 2.65 6 4.3 6 6 C5.01 5.67 4.02 5.34 3 5 C3.15082031 5.63421875 3.30164063 6.2684375 3.45703125 6.921875 C4.71175208 14.03496865 5.58471863 21.89009586 4 29 C1.67142601 32.27876268 -0.50019866 34.16124576 -3.8125 36.40625 C-4.534375 36.9321875 -5.25625 37.458125 -6 38 C-6 38.99 -6 39.98 -6 41 C-7.57421875 42.71875 -7.57421875 42.71875 -9.6875 44.5 C-10.37199219 45.0878125 -11.05648437 45.675625 -11.76171875 46.28125 C-14 48 -14 48 -16.47265625 49.43359375 C-19.30776328 51.19074664 -21.41565642 53.18507289 -23.75 55.5625 C-24.52859375 56.34753906 -25.3071875 57.13257813 -26.109375 57.94140625 C-28.04375674 59.85782262 -28.04375674 59.85782262 -29 62 C-29.99 61.67 -30.98 61.34 -32 61 C-31.10692139 60.13834229 -30.21384277 59.27668457 -29.29370117 58.38891602 C-25.96284953 55.16722237 -22.6523523 51.92525363 -19.34741211 48.67700195 C-17.91825738 47.27789388 -16.48374728 45.88423337 -15.04370117 44.49633789 C-12.96638649 42.49236557 -10.90956171 40.46914244 -8.85546875 38.44140625 C-7.89437447 37.52676353 -7.89437447 37.52676353 -6.91386414 36.59364319 C-1.46264148 31.14653518 0.68672466 25.7369273 1.328125 18.0859375 C1.30234375 16.86132812 1.2765625 15.63671875 1.25 14.375 C1.23453125 13.14523437 1.2190625 11.91546875 1.203125 10.6484375 C1.00273661 7.04915368 0.56714595 3.55838343 0 0 Z " fill="#0F438E" transform="translate(145,390)"/>
<path d="M0 0 C-1.3921875 0.6496875 -1.3921875 0.6496875 -2.8125 1.3125 C-5.93672862 2.71527877 -5.93672862 2.71527877 -7.4375 4.6875 C-9 6 -9 6 -12.1875 5.875 C-17.26495638 6.04147398 -19.97263974 8.11080677 -24 11 C-27 13 -27 13 -28.921875 13.43359375 C-31.53325587 14.1453423 -33.12664955 15.39920881 -35.25 17.0625 C-35.95640625 17.61035156 -36.6628125 18.15820312 -37.390625 18.72265625 C-38.18726563 19.35494141 -38.18726563 19.35494141 -39 20 C-39.66 19.67 -40.32 19.34 -41 19 C-33.08669821 11.28453076 -11.43220757 -4.38419611 0 0 Z " fill="#0F4794" transform="translate(94,280)"/>
<path d="M0 0 C1.13063608 3.64106509 0.52854863 5.7965532 -0.47949219 9.44921875 C-1.61991738 15.03794406 -1.48634069 20.81496827 -1.625 26.5 C-1.66367187 27.799375 -1.70234375 29.09875 -1.7421875 30.4375 C-1.83593347 33.62486286 -1.92164349 36.8122279 -2 40 C-1.01 40 -0.02 40 1 40 C1.33 42.31 1.66 44.62 2 47 C-1.30641539 43.91401231 -3.68509255 41.38879795 -4.29052734 36.79614258 C-4.34086419 34.13397274 -4.3786197 31.47524323 -4.375 28.8125 C-4.37628906 27.84103027 -4.37757812 26.86956055 -4.37890625 25.86865234 C-4.24895934 16.85063212 -2.55864514 8.61258231 0 0 Z " fill="#12478E" transform="translate(19,348)"/>
<path d="M0 0 C0 0.66 0 1.32 0 2 C4.14612814 1.86186975 8.29181162 1.71321141 12.4375 1.5625 C13.62150391 1.52318359 14.80550781 1.48386719 16.02539062 1.44335938 C17.15009766 1.40146484 18.27480469 1.35957031 19.43359375 1.31640625 C20.47572021 1.27974854 21.51784668 1.24309082 22.59155273 1.20532227 C24.9499826 1.26484659 24.9499826 1.26484659 26 0 C28.69235776 -0.23678716 31.36498156 -0.42198025 34.0625 -0.5625 C34.82111328 -0.60568359 35.57972656 -0.64886719 36.36132812 -0.69335938 C38.24065438 -0.79973633 40.12030244 -0.90039934 42 -1 C33.21805613 3.72902529 23.28383454 3.31016298 13.5625 3.25 C11.69368164 3.26160156 11.69368164 3.26160156 9.78710938 3.2734375 C2.3075166 3.25773232 -4.70067509 2.65196733 -12 1 C-12 0.67 -12 0.34 -12 0 C-10.56359829 -0.19573608 -9.12580496 -0.38127816 -7.6875 -0.5625 C-6.88699219 -0.66691406 -6.08648437 -0.77132812 -5.26171875 -0.87890625 C-3 -1 -3 -1 0 0 Z " fill="#124A95" transform="translate(368,221)"/>
<path d="M0 0 C0.66 0.33 1.32 0.66 2 1 C2.57685009 10.80645161 2.57685009 10.80645161 -1 15 C-1.76207764 15.44255127 -2.52415527 15.88510254 -3.30932617 16.34106445 C-6.26654404 18.16433779 -8.42431531 20.19753228 -10.86328125 22.66796875 C-11.74951172 23.56064453 -12.63574219 24.45332031 -13.54882812 25.37304688 C-14.46083984 26.30181641 -15.37285156 27.23058594 -16.3125 28.1875 C-17.2527888 29.1378315 -18.19353971 30.087706 -19.13476562 31.03710938 C-21.42775959 33.35362123 -23.71594652 35.67467801 -26 38 C-26.66 37.34 -27.32 36.68 -28 36 C-27.54431641 35.60925293 -27.08863281 35.21850586 -26.61914062 34.81591797 C-20.75846259 29.74395308 -15.0807328 24.50294455 -9.5 19.125 C-8.5821875 18.27808594 -7.664375 17.43117187 -6.71875 16.55859375 C-1.94780929 12.14484252 -1.94780929 12.14484252 0.58984375 6.36230469 C0.65787957 3.62614138 0.65787957 3.62614138 0 0 Z " fill="#154A90" transform="translate(277,134)"/>
<path d="M0 0 C0.66 0 1.32 0 2 0 C3.41015625 1.43359375 3.41015625 1.43359375 5.0625 3.4375 C13.31345017 13.88789666 13.31345017 13.88789666 25 19 C25 20.32 25 21.64 25 23 C25.66 23.66 26.32 24.32 27 25 C27 25.66 27 26.32 27 27 C23.1173105 25.41588094 20.48135635 22.77134362 17.578125 19.84375 C17.07327576 19.34081421 16.56842651 18.83787842 16.04827881 18.31970215 C14.98692003 17.25970014 13.92806581 16.19718512 12.87158203 15.13232422 C11.24860876 13.49859954 9.61518932 11.87586706 7.98046875 10.25390625 C6.94987854 9.22199524 5.91990848 8.18946441 4.890625 7.15625 C4.40007629 6.66974976 3.90952759 6.18324951 3.40411377 5.68200684 C0 2.22994349 0 2.22994349 0 0 Z " fill="#4EAFEF" transform="translate(145,223)"/>
<path d="M0 0 C2.53931373 7.6179412 -5.26770596 18.88001941 -8.66796875 25.734375 C-10 28 -10 28 -12 29 C-11.57620166 26.89303095 -11.1354597 24.78946473 -10.6875 22.6875 C-10.44386719 21.51574219 -10.20023438 20.34398437 -9.94921875 19.13671875 C-8.99121608 15.9709733 -8.28017058 15.17797806 -6 13 C-6 11.68 -6 10.36 -6 9 C-5.34 9 -4.68 9 -4 9 C-2.68 6.03 -1.36 3.06 0 0 Z " fill="#054CAA" transform="translate(220,407)"/>
<path d="M0 0 C0.66 0.66 1.32 1.32 2 2 C2.33 1.34 2.66 0.68 3 0 C3.99 0.33 4.98 0.66 6 1 C6 2.65 6 4.3 6 6 C5.01 5.67 4.02 5.34 3 5 C3.23976562 5.93779297 3.23976562 5.93779297 3.484375 6.89453125 C4.19383026 11.16738681 4.22393002 15.36314243 4.25 19.6875 C4.270625 20.55439453 4.29125 21.42128906 4.3125 22.31445312 C4.32023438 23.55678711 4.32023438 23.55678711 4.328125 24.82421875 C4.3374707 25.57791748 4.34681641 26.33161621 4.35644531 27.1081543 C4.23881836 27.73246338 4.12119141 28.35677246 4 29 C3.01 29.66 2.02 30.32 1 31 C1.00523682 30.30962646 1.01047363 29.61925293 1.01586914 28.90795898 C1.03677867 25.75114874 1.04970442 22.59435314 1.0625 19.4375 C1.07087891 18.35146484 1.07925781 17.26542969 1.08789062 16.14648438 C1.10459218 10.65167389 0.98582259 5.41038065 0 0 Z " fill="#0B4799" transform="translate(145,390)"/>
<path d="M0 0 C0.87785156 0.39832031 0.87785156 0.39832031 1.7734375 0.8046875 C10.65146105 4.4572077 19.52774151 5.20803999 29 6 C28.01 7.485 28.01 7.485 27 9 C24.25 9.328125 24.25 9.328125 21 9.25 C19.9275 9.23453125 18.855 9.2190625 17.75 9.203125 C15 9 15 9 13 8 C13 7.34 13 6.68 13 6 C10.69 5.67 8.38 5.34 6 5 C5.67 5.66 5.34 6.32 5 7 C5 6.01 5 5.02 5 4 C2.525 3.01 2.525 3.01 0 2 C0 1.34 0 0.68 0 0 Z " fill="#0A4B9C" transform="translate(382,141)"/>
<path d="M0 0 C0.33 0 0.66 0 1 0 C1.55403922 6.98705017 0.70425981 13.39292069 -0.8125 20.1875 C-0.97782227 20.93499512 -1.14314453 21.68249023 -1.31347656 22.45263672 C-2.49115647 27.4838361 -4.10082755 32.19493046 -6 37 C-7.2394385 32.9132177 -6.45270676 30.61141866 -5.0625 26.5625 C-3.68437311 22.53089488 -2.73637248 19.27396128 -3 15 C-2.34 15 -1.68 15 -1 15 C-1.01160156 14.00097656 -1.02320313 13.00195312 -1.03515625 11.97265625 C-1.04417969 10.68230469 -1.05320312 9.39195312 -1.0625 8.0625 C-1.07410156 6.77472656 -1.08570313 5.48695313 -1.09765625 4.16015625 C-1 1 -1 1 0 0 Z " fill="#0F4790" transform="translate(484,123)"/>
<path d="M0 0 C0.66 0 1.32 0 2 0 C2.0544452 2.20805524 2.09299283 4.41650554 2.125 6.625 C2.14820313 7.85476562 2.17140625 9.08453125 2.1953125 10.3515625 C2.0030428 13.94316041 1.30258556 16.66661175 0 20 C-0.66 20 -1.32 20 -2 20 C-2.144375 20.94875 -2.28875 21.8975 -2.4375 22.875 C-3 26 -3 26 -4 28 C-4.66 28 -5.32 28 -6 28 C-5.80664062 27.43152344 -5.61328125 26.86304687 -5.4140625 26.27734375 C-4.59732361 23.85542991 -3.79884621 21.42786593 -3 19 C-2.62875 17.906875 -2.2575 16.81375 -1.875 15.6875 C-0.64462538 10.50234981 -0.33127686 5.30914751 0 0 Z " fill="#4DB2EB" transform="translate(147,90)"/>
<path d="M0 0 C12.48324212 -0.79305303 24.51264678 2.29520045 36 7 C32.79544422 8.07292222 31.23979237 7.96120832 28.1875 6.5625 C24.3288431 4.96432494 21.18530974 4.9179351 17 5 C16.01 4.34 15.02 3.68 14 3 C11.36082284 2.61593116 11.36082284 2.61593116 8.5 2.5 C4.65843462 2.29346423 3.28343324 2.1889555 0 0 Z " fill="#4CB0E9" transform="translate(124,15)"/>
<path d="M0 0 C0 0.33 0 0.66 0 1 C-1.48113281 1.16435547 -1.48113281 1.16435547 -2.9921875 1.33203125 C-4.27351563 1.49058594 -5.55484375 1.64914063 -6.875 1.8125 C-8.15117187 1.96332031 -9.42734375 2.11414063 -10.7421875 2.26953125 C-14.27770316 2.66848082 -14.27770316 2.66848082 -16 6 C-16 6.99 -16 7.98 -16 9 C-17.9375 8.625 -17.9375 8.625 -20 8 C-20.33 7.34 -20.66 6.68 -21 6 C-24.02934491 5.34227572 -24.02934491 5.34227572 -27 5 C-19.68376607 0.12251071 -8.60736631 -0.45301928 0 0 Z " fill="#0D4A9D" transform="translate(375,15)"/>
<path d="M0 0 C0.33 0 0.66 0 1 0 C1.19335938 1.18078125 1.38671875 2.3615625 1.5859375 3.578125 C1.84862276 5.13547331 2.11166218 6.69276191 2.375 8.25 C2.50132812 9.02730469 2.62765625 9.80460937 2.7578125 10.60546875 C3.62201522 16.06757841 3.62201522 16.06757841 6 21 C6.66 21.33 7.32 21.66 8 22 C8 25.63 8 29.26 8 33 C1.8060398 23.70905969 -0.40836981 11.02598487 0 0 Z " fill="#4DB4EB" transform="translate(276,389)"/>
<path d="M0 0 C0 0.33 0 0.66 0 1 C-2.31 1 -4.62 1 -7 1 C-7 1.66 -7 2.32 -7 3 C-8.50197356 4.24076077 -10.00612315 5.47921817 -11.53125 6.69140625 C-13.28660135 8.25534961 -14.18614864 9.80260134 -15 12 C-15.66 11.67 -16.32 11.34 -17 11 C-17.33 12.98 -17.66 14.96 -18 17 C-18.7974855 14.68004218 -19.11434828 13.38017091 -18.3984375 11 C-13.94502211 2.29714243 -9.47447277 -0.15281408 0 0 Z " fill="#4EB1E7" transform="translate(34,100)"/>
<path d="M0 0 C0.33 0.99 0.66 1.98 1 3 C-0.8125 5.6875 -0.8125 5.6875 -3 8 C-3.66 8 -4.32 8 -5 8 C-5.20625 8.5775 -5.4125 9.155 -5.625 9.75 C-7.49750888 12.81410544 -9.96958519 14.15539968 -13 16 C-13.66 15.67 -14.32 15.34 -15 15 C-10.05 10.05 -5.1 5.1 0 0 Z " fill="#0D4392" transform="translate(439,125)"/>
<path d="M0 0 C1.9375 1.3125 1.9375 1.3125 4 4 C4.45471356 6.76227862 4.62543154 9.44943375 4.7265625 12.24609375 C4.86846412 15.04140234 4.86846412 15.04140234 6.0859375 17.59765625 C7.10353554 20.27211263 6.97576607 21.3654316 6 24 C0.44419134 8.43963554 0.44419134 8.43963554 0 0 Z " fill="#51B2EB" transform="translate(16,136)"/>
<path d="M0 0 C2.23689267 3.355339 3.16735541 6.59630574 4.1875 10.4375 C4.47270508 11.44006836 4.47270508 11.44006836 4.76367188 12.46289062 C5.69706355 15.93813861 6.37080403 18.58608679 5 22 C4.67 20.35 4.34 18.7 4 17 C3.01 17.99 2.02 18.98 1 20 C1.01160156 19.14277344 1.02320313 18.28554687 1.03515625 17.40234375 C1.0818041 11.49139448 1.08249916 5.81843296 0 0 Z " fill="#4AB1EC" transform="translate(217,82)"/>
<path d="M0 0 C1.98 0.66 3.96 1.32 6 2 C4.40956621 7.08938811 1.2553049 10.87456643 -2 15 C-2.97591583 11.61682513 -2.85856655 9.4342662 -2 6 C-1.01 6.33 -0.02 6.66 1 7 C1.33 5.35 1.66 3.7 2 2 C1.34 2 0.68 2 0 2 C0 1.34 0 0.68 0 0 Z " fill="#084598" transform="translate(202,434)"/>
<path d="M0 0 C4.76563433 4.57500895 9.33259688 9.49889533 13 15 C12.360625 14.814375 11.72125 14.62875 11.0625 14.4375 C10.0415625 14.2209375 10.0415625 14.2209375 9 14 C8.67 14.33 8.34 14.66 8 15 C7.34 14.67 6.68 14.34 6 14 C5.855625 13.38125 5.71125 12.7625 5.5625 12.125 C5.16481762 9.90303614 5.16481762 9.90303614 3.4375 8.4375 C2.963125 7.963125 2.48875 7.48875 2 7 C2 6.01 2 5.02 2 4 C1.34 4 0.68 4 0 4 C0 2.68 0 1.36 0 0 Z " fill="#0B4694" transform="translate(360,120)"/>
<path d="M0 0 C0.556875 0.28875 1.11375 0.5775 1.6875 0.875 C4.00238964 2.07361818 4.00238964 2.07361818 6.625 2.8125 C9.77884451 4.38942226 9.76928548 5.74222628 11 9 C12.8804394 11.44305065 14.91772827 13.72783556 17 16 C16.34 16.66 15.68 17.32 15 18 C14.62488281 17.48050781 14.24976563 16.96101563 13.86328125 16.42578125 C10.82010153 12.27877816 7.6936691 8.59646728 4 5 C2.64444707 3.35135455 1.30368347 1.68996005 0 0 Z " fill="#0E458E" transform="translate(124,362)"/>
<path d="M0 0 C-2.22308063 1.48907295 -4.45268345 2.96622717 -6.6875 4.4375 C-7.31333984 4.85837891 -7.93917969 5.27925781 -8.58398438 5.71289062 C-12.03381677 7.97063434 -14.8029063 9.55862303 -19 10 C-19 9.01 -19 8.02 -19 7 C-17.02 7 -15.04 7 -13 7 C-13 6.34 -13 5.68 -13 5 C-12.21625 4.731875 -11.4325 4.46375 -10.625 4.1875 C-7.71885077 3.15185568 -7.71885077 3.15185568 -6 0 C-3.50907189 -1.24546405 -2.58919267 -0.7767578 0 0 Z " fill="#0E4595" transform="translate(444,204)"/>
<path d="M0 0 C6.71539173 1.29975324 12.72019113 3.29928888 19 6 C15.71023192 7.09658936 14.28696233 6.79953138 11 6 C11 5.34 11 4.68 11 4 C9.02 4 7.04 4 5 4 C4.67 4.66 4.34 5.32 4 6 C3.67 4.68 3.34 3.36 3 2 C2.01 2 1.02 2 0 2 C0 1.34 0 0.68 0 0 Z " fill="#4BAEE7" transform="translate(407,279)"/>
<path d="M0 0 C3.78459259 2.12289871 6.91264705 4.52477019 10.125 7.4375 C10.97320312 8.19933594 11.82140625 8.96117187 12.6953125 9.74609375 C14.72135736 11.72749694 16.3835839 13.68102397 18 16 C17.443125 15.71125 16.88625 15.4225 16.3125 15.125 C13.98395537 13.92661791 13.98395537 13.92661791 11.3125 13.125 C10.549375 12.75375 9.78625 12.3825 9 12 C8.6278958 10.67696283 8.29369827 9.34262065 8 8 C6.15028304 6.94978897 6.15028304 6.94978897 4 6 C1.75 4 1.75 4 0 2 C0 1.34 0 0.68 0 0 Z " fill="#50AEE4" transform="translate(441,295)"/>
<path d="M0 0 C5.92056487 5.76875552 5.92056487 5.76875552 6.25 10.875 C6.22382048 14.47468355 5.6189021 16.3810979 3 19 C2.67 17.02 2.34 15.04 2 13 C2.66 13 3.32 13 4 13 C3.44691161 10.23455807 2.56669268 7.99472703 1.4375 5.375 C0 2 0 2 0 0 Z " fill="#104897" transform="translate(394,19)"/>
<path d="M0 0 C0.33 0.66 0.66 1.32 1 2 C-0.1875 5.5625 -0.1875 5.5625 -2 9 C-4.1875 9.9375 -4.1875 9.9375 -6 10 C-6.33 11.65 -6.66 13.3 -7 15 C-7.99 15.33 -8.98 15.66 -10 16 C-8.55797524 11.84848662 -6.4989562 8.70021555 -3.875 5.1875 C-3.15054688 4.21167969 -2.42609375 3.23585938 -1.6796875 2.23046875 C-0.84824219 1.12638672 -0.84824219 1.12638672 0 0 Z " fill="#0B4391" transform="translate(37,315)"/>
<path d="M0 0 C2.97 0.495 2.97 0.495 6 1 C2.6189962 5.13621084 -0.66590534 8.81316569 -5 12 C-5 10.68 -5 9.36 -5 8 C-3.68 7.34 -2.36 6.68 -1 6 C-1 5.01 -1 4.02 -1 3 C-0.67 2.01 -0.34 1.02 0 0 Z " fill="#0A4496" transform="translate(370,58)"/>
<path d="M0 0 C0.66 0.33 1.32 0.66 2 1 C-0.31 3.31 -2.62 5.62 -5 8 C-5.99 7.01 -6.98 6.02 -8 5 C-8 4.01 -8 3.02 -8 2 C-6.865625 1.855625 -5.73125 1.71125 -4.5625 1.5625 C-1.19222799 1.38828522 -1.19222799 1.38828522 0 0 Z " fill="#08469C" transform="translate(65,368)"/>
<path d="M0 0 C2.475 0.99 2.475 0.99 5 2 C4.04578192 3.14926266 3.08647955 4.29430541 2.125 5.4375 C1.59132813 6.07558594 1.05765625 6.71367187 0.5078125 7.37109375 C-1 9 -1 9 -3 10 C-3 9.01 -3 8.02 -3 7 C-2.34 7 -1.68 7 -1 7 C-1.309375 5.824375 -1.309375 5.824375 -1.625 4.625 C-1.74875 3.75875 -1.8725 2.8925 -2 2 C-1.34 1.34 -0.68 0.68 0 0 Z " fill="#09469A" transform="translate(51,377)"/>
<path d="M0 0 C1.43088528 2.86177057 0.59991697 4.93375773 0 8 C-3.28976808 9.09658936 -4.71303767 8.79953138 -8 8 C-5.58443874 4.80800833 -3.31996462 2.25283313 0 0 Z " fill="#0951AA" transform="translate(174,247)"/>
<path d="M0 0 C0 3.95566141 -1.39609149 5.09914371 -3.875 8.125 C-4.59429687 9.01445312 -5.31359375 9.90390625 -6.0546875 10.8203125 C-8 13 -8 13 -10 14 C-9.67 12.35 -9.34 10.7 -9 9 C-8.01 9 -7.02 9 -6 9 C-6.33 8.01 -6.66 7.02 -7 6 C-6.34 6 -5.68 6 -5 6 C-5 5.34 -5 4.68 -5 4 C-4.01 4 -3.02 4 -2 4 C-1.34 2.68 -0.68 1.36 0 0 Z " fill="#104492" transform="translate(466,178)"/>
<path d="M0 0 C0 0.66 0 1.32 0 2 C1.65 2.33 3.3 2.66 5 3 C5 3.66 5 4.32 5 5 C6.65 5.33 8.3 5.66 10 6 C7.13421241 7.16161779 5.98369837 6.9946154 2.984375 6.00390625 C1.91703125 5.52824219 0.8496875 5.05257813 -0.25 4.5625 C-1.32765625 4.08941406 -2.4053125 3.61632812 -3.515625 3.12890625 C-4.33546875 2.75636719 -5.1553125 2.38382812 -6 2 C-3 0 -3 0 0 0 Z " fill="#4FB4ED" transform="translate(342,474)"/>
<path d="M0 0 C0.33 0.66 0.66 1.32 1 2 C0 5 0 5 -2.125 6.25 C-6.00626274 8.61250776 -8.884161 11.72253246 -12 15 C-12.66 14.67 -13.32 14.34 -14 14 C-9.38 9.38 -4.76 4.76 0 0 Z " fill="#18458C" transform="translate(165,255)"/>
<path d="M0 0 C0.33 0.66 0.66 1.32 1 2 C0.16260196 4.43606701 -0.68647089 5.74453184 -2.6875 7.375 C-6.1485258 8.31041238 -8.68622625 7.14707553 -12 6 C-12 5.67 -12 5.34 -12 5 C-11.30132812 4.80664062 -10.60265625 4.61328125 -9.8828125 4.4140625 C-8.97273438 4.15367187 -8.06265625 3.89328125 -7.125 3.625 C-6.22007812 3.36976563 -5.31515625 3.11453125 -4.3828125 2.8515625 C-1.85430274 2.1395685 -1.85430274 2.1395685 0 0 Z " fill="#0D4695" transform="translate(423,141)"/>
<path d="M0 0 C-2.34882224 2.34882224 -4.27123667 3.03503024 -7.375 4.1875 C-8.33148438 4.55230469 -9.28796875 4.91710937 -10.2734375 5.29296875 C-13.05285296 6.01370542 -14.35108103 5.98549829 -17 5 C-14.73392948 3.96724659 -12.46318061 2.94866449 -10.1875 1.9375 C-9.22360352 1.49567383 -9.22360352 1.49567383 -8.24023438 1.04492188 C-3.33984375 -1.11328125 -3.33984375 -1.11328125 0 0 Z " fill="#124790" transform="translate(348,21)"/>
<path d="M0 0 C1.35304209 4.05912626 0.15216503 5.77149591 -1.4375 9.6875 C-1.91058594 10.86699219 -2.38367188 12.04648437 -2.87109375 13.26171875 C-3.24363281 14.16535156 -3.61617187 15.06898438 -4 16 C-4.33 16 -4.66 16 -5 16 C-5.33 13.69 -5.66 11.38 -6 9 C-5.34 9 -4.68 9 -4 9 C-2.68 6.03 -1.36 3.06 0 0 Z " fill="#0F4792" transform="translate(220,407)"/>
<path d="M0 0 C1.65 0.33 3.3 0.66 5 1 C4.67 1.66 4.34 2.32 4 3 C3.34 3 2.68 3 2 3 C1.731875 3.61875 1.46375 4.2375 1.1875 4.875 C0 7 0 7 -3 9 C-3.125 4.25 -3.125 4.25 -2 2 C-1.34 2 -0.68 2 0 2 C0 1.34 0 0.68 0 0 Z " fill="#0E489D" transform="translate(227,346)"/>
<path d="M0 0 C3.24060473 2.95881302 3.93248035 5.05472494 4.25 9.5 C4 13 4 13 2.5 14.9375 C2.005 15.288125 1.51 15.63875 1 16 C1.33 13.69 1.66 11.38 2 9 C1.34 8.67 0.68 8.34 0 8 C0 5.36 0 2.72 0 0 Z " fill="#52B1E8" transform="translate(396,461)"/>
<path d="M0 0 C1.65 0.33 3.3 0.66 5 1 C2.03653214 3.47186455 -0.54041689 4.66248361 -4.25 5.6875 C-5.14203125 5.93886719 -6.0340625 6.19023437 -6.953125 6.44921875 C-7.62859375 6.63097656 -8.3040625 6.81273437 -9 7 C-7.6875 5.5 -7.6875 5.5 -6 4 C-5.01 4 -4.02 4 -3 4 C-3 3.34 -3 2.68 -3 2 C-2.01 2 -1.02 2 0 2 C0 1.34 0 0.68 0 0 Z " fill="#124893" transform="translate(420,213)"/>
<path d="M0 0 C0.73605469 0.27714844 1.47210938 0.55429688 2.23046875 0.83984375 C3.20628906 1.20207031 4.18210937 1.56429687 5.1875 1.9375 C6.15042969 2.29714844 7.11335938 2.65679687 8.10546875 3.02734375 C10.7368278 3.91156562 13.26894908 4.52568586 16 5 C16 5.33 16 5.66 16 6 C9.375 6.125 9.375 6.125 6 5 C5.67 5.66 5.34 6.32 5 7 C5 6.01 5 5.02 5 4 C2.525 3.01 2.525 3.01 0 2 C0 1.34 0 0.68 0 0 Z " fill="#0D4690" transform="translate(382,141)"/>
<path d="M0 0 C0 0.66 0 1.32 0 2 C-0.66 2 -1.32 2 -2 2 C-2.2475 2.61875 -2.495 3.2375 -2.75 3.875 C-4.20628639 6.35068687 -5.37812506 6.95125002 -8 8 C-8.33 7.01 -8.66 6.02 -9 5 C-7.87926138 4.16094435 -6.75325453 3.32892169 -5.625 2.5 C-4.99851562 2.0359375 -4.37203125 1.571875 -3.7265625 1.09375 C-2 0 -2 0 0 0 Z " fill="#0B469A" transform="translate(328,29)"/>
<path d="M0 0 C2.93200474 2.85276137 5.64315404 5.65079784 8 9 C7.67 9.66 7.34 10.32 7 11 C5.68 10.67 4.36 10.34 3 10 C2.87625 9.195625 2.7525 8.39125 2.625 7.5625 C2.315625 6.2940625 2.315625 6.2940625 2 5 C1.34 4.67 0.68 4.34 0 4 C0 2.68 0 1.36 0 0 Z " fill="#4CAFE5" transform="translate(461,314)"/>
<path d="M0 0 C0.99 0.33 1.98 0.66 3 1 C3 2.32 3 3.64 3 5 C3.66 5.66 4.32 6.32 5 7 C5 7.66 5 8.32 5 9 C2.53199953 7.84826645 0.95216435 6.95216435 -1 5 C-0.625 2.375 -0.625 2.375 0 0 Z " fill="#3DAEE9" transform="translate(167,241)"/>
<path d="M0 0 C6.17222879 1.24028238 12.06682122 2.89603589 18 5 C14.76657799 6.08740918 13.15817088 5.94175931 10.0625 4.5625 C6.8915667 3.25856481 4.47559698 2.67416278 1 3 C0.67 2.01 0.34 1.02 0 0 Z " fill="#54AAE2" transform="translate(142,17)"/>
<path d="M0 0 C2.01822917 0.26041667 4.03645833 0.52083333 6.0546875 0.78125 C8.00498344 1.0372485 8.00498344 1.0372485 10 1 C10 1.66 10 2.32 10 3 C10.99 3.66 11.98 4.32 13 5 C7.30702655 5.45543788 4.45738181 4.58764877 0 1 C0 0.67 0 0.34 0 0 Z " fill="#4DB1E7" transform="translate(460,395)"/>
<path d="M0 0 C1.41623216 -0.05447047 2.83308191 -0.09300508 4.25 -0.125 C5.03890625 -0.14820313 5.8278125 -0.17140625 6.640625 -0.1953125 C9.20731941 0.0171622 10.7916067 0.71345895 13 2 C13 2.66 13 3.32 13 4 C8.428721 3.45144652 4.32564205 2.58255197 0 1 C0 0.67 0 0.34 0 0 Z " fill="#4BB2ED" transform="translate(81,217)"/>
<path d="M0 0 C-2.64 1.98 -5.28 3.96 -8 6 C-8.33 4.35 -8.66 2.7 -9 1 C-5.19495213 -0.79682816 -4.29399165 -1.07349791 0 0 Z " fill="#4DB4EC" transform="translate(378,362)"/>
<path d="M0 0 C0.33 0 0.66 0 1 0 C1.21278058 4.46839215 0.59138085 7.82262526 -1 12 C-1.99 12 -2.98 12 -4 12 C-2.66666667 8 -1.33333333 4 0 0 Z " fill="#114890" transform="translate(24,335)"/>
<path d="M0 0 C0.66 0.33 1.32 0.66 2 1 C1.67 1.99 1.34 2.98 1 4 C0.01 4.33 -0.98 4.66 -2 5 C-2.33 5.99 -2.66 6.98 -3 8 C-4.65 8.33 -6.3 8.66 -8 9 C-7.04270084 7.87411986 -6.08412105 6.7493285 -5.125 5.625 C-4.59132812 4.99851562 -4.05765625 4.37203125 -3.5078125 3.7265625 C-2.38567993 2.44163349 -1.20628025 1.20628025 0 0 Z " fill="#0F4696" transform="translate(51,300)"/>
<path d="M0 0 C1.9375 0.75 1.9375 0.75 4 2 C4.75 4.125 4.75 4.125 5 6 C-0.75 4.25 -0.75 4.25 -3 2 C-2.01 1.34 -1.02 0.68 0 0 Z " fill="#44B4EC" transform="translate(71,209)"/>
<path d="M0 0 C1.98 0.99 1.98 0.99 4 2 C4 2.66 4 3.32 4 4 C4.66 4 5.32 4 6 4 C6 4.99 6 5.98 6 7 C6.66 7.33 7.32 7.66 8 8 C7.34 9.65 6.68 11.3 6 13 C5.67 13 5.34 13 5 13 C4.80664062 12.31292969 4.61328125 11.62585938 4.4140625 10.91796875 C4.15367187 10.01691406 3.89328125 9.11585937 3.625 8.1875 C3.36976563 7.29417969 3.11453125 6.40085937 2.8515625 5.48046875 C2.04733339 2.79532104 2.04733339 2.79532104 0 0 Z " fill="#4FB0E9" transform="translate(141,76)"/>
<path d="M0 0 C-3.41016497 2.86453858 -6.90694544 4.34703566 -11 6 C-11 5.34 -11 4.68 -11 4 C-10.34 4 -9.68 4 -9 4 C-9 3.01 -9 2.02 -9 1 C-5.92677456 0.08941469 -3.19902639 -0.08886184 0 0 Z " fill="#50B4EB" transform="translate(389,355)"/>
<path d="M0 0 C3.21043882 1.38188453 5.04936365 2.92421903 7.25 5.625 C7.77078125 6.25664062 8.2915625 6.88828125 8.828125 7.5390625 C9.40820312 8.26222656 9.40820312 8.26222656 10 9 C7.77442119 7.94890528 6.1566607 7.16292713 4.4375 5.375 C2.97021721 3.65438868 2.97021721 3.65438868 0 4 C-0.33 3.01 -0.66 2.02 -1 1 C-0.67 0.67 -0.34 0.34 0 0 Z " fill="#4AA9E8" transform="translate(328,250)"/>
<path d="M0 0 C0.33 0.66 0.66 1.32 1 2 C-2.44615385 7.78461538 -2.44615385 7.78461538 -5.25 8.875 C-5.8275 8.91625 -6.405 8.9575 -7 9 C-5.44499019 5.18315774 -2.96404505 2.80804268 0 0 Z " fill="#0357B1" transform="translate(198,223)"/>
<path d="M0 0 C0.33 0.66 0.66 1.32 1 2 C-2.44615385 7.78461538 -2.44615385 7.78461538 -5.25 8.875 C-5.8275 8.91625 -6.405 8.9575 -7 9 C-5.44499019 5.18315774 -2.96404505 2.80804268 0 0 Z " fill="#0357B0" transform="translate(230,191)"/>
<path d="M0 0 C0.66 0 1.32 0 2 0 C2 0.99 2 1.98 2 3 C2.66 3 3.32 3 4 3 C4.66 5.97 5.32 8.94 6 12 C3.04152015 9.04152015 1.65789147 6.78946622 0 3 C0 2.01 0 1.02 0 0 Z " fill="#56B3EC" transform="translate(23,160)"/>
<path d="M0 0 C2.475 0.99 2.475 0.99 5 2 C3.35 3.65 1.7 5.3 0 7 C-0.38133299 5.0085944 -0.71325582 3.00720923 -1 1 C-0.67 0.67 -0.34 0.34 0 0 Z " fill="#08479D" transform="translate(67,361)"/>
<path d="M0 0 C0.66 0.33 1.32 0.66 2 1 C0.88121617 2.17262904 -0.24523051 3.33795138 -1.375 4.5 C-2.00148438 5.1496875 -2.62796875 5.799375 -3.2734375 6.46875 C-5 8 -5 8 -7 8 C-6.8125 6.1875 -6.8125 6.1875 -6 4 C-3.5 2.3125 -3.5 2.3125 -1 1 C-0.67 0.67 -0.34 0.34 0 0 Z " fill="#0753A0" transform="translate(336,241)"/>
<path d="M0 0 C2.31 1.98 4.62 3.96 7 6 C6.67 6.66 6.34 7.32 6 8 C3.5625 7.375 3.5625 7.375 1 6 C0.1875 2.875 0.1875 2.875 0 0 Z " fill="#4DAFE4" transform="translate(194,46)"/>
<path d="M0 0 C2.31 1.98 4.62 3.96 7 6 C4.66666667 6 2.33333333 6 0 6 C0 4.02 0 2.04 0 0 Z " fill="#4CB0E9" transform="translate(187,39)"/>
<path d="M0 0 C0.99 0.66 1.98 1.32 3 2 C1.02 4.31 -0.96 6.62 -3 9 C-4 6 -4 6 -3.0625 3.8125 C-2.5365625 2.9153125 -2.5365625 2.9153125 -2 2 C-1.34 2 -0.68 2 0 2 C0 1.34 0 0.68 0 0 Z " fill="#52B1E8" transform="translate(365,369)"/>
<path d="M0 0 C1.85595105 3.46444197 3.33300647 6.2873953 2.5625 10.25 C2.376875 10.8275 2.19125 11.405 2 12 C-0.60018816 8.09971775 -0.15085514 4.52565431 0 0 Z " fill="#4EB2E8" transform="translate(100,26)"/>
<path d="M0 0 C1.32 0 2.64 0 4 0 C4.66 2.64 5.32 5.28 6 8 C1.125 3.375 1.125 3.375 0 0 Z " fill="#4EB1ED" transform="translate(296,442)"/>
<path d="M0 0 C1.98 0 3.96 0 6 0 C6.33 1.98 6.66 3.96 7 6 C3.63279613 4.60667426 2.0140476 3.0210714 0 0 Z " fill="#50B3EA" transform="translate(308,456)"/>
<path d="M0 0 C2.15377564 2.62198774 3.40072174 4.64404172 4 8 C3.01 8 2.02 8 1 8 C-0.35439668 5.29120665 -0.06501451 2.99066732 0 0 Z " fill="#4CB0E9" transform="translate(471,328)"/>
<path d="M0 0 C1.48199902 0.44909061 2.96055236 0.90956564 4.4375 1.375 C5.26121094 1.63023438 6.08492187 1.88546875 6.93359375 2.1484375 C9 3 9 3 10 5 C6.7 4.34 3.4 3.68 0 3 C0 2.01 0 1.02 0 0 Z " fill="#51AEDE" transform="translate(160,23)"/>
<path d="M0 0 C1.98 0 3.96 0 6 0 C6 1.98 6 3.96 6 6 C3.97945196 4.35830472 1.97956942 2.69088222 0 1 C0 0.67 0 0.34 0 0 Z " fill="#4DB2EA" transform="translate(302,450)"/>
<path d="M0 0 C0.99 0 1.98 0 3 0 C1.8141763 3.37503669 0.72426311 5.64722731 -2 8 C-1.34 5.36 -0.68 2.72 0 0 Z " fill="#0E428C" transform="translate(210,428)"/>
<path d="M0 0 C-1.65 0.33 -3.3 0.66 -5 1 C-5 1.66 -5 2.32 -5 3 C-6.65 3 -8.3 3 -10 3 C-6.81859267 -0.48439851 -4.56758339 -1.41752588 0 0 Z " fill="#50B0E3" transform="translate(117,16)"/>
</svg>
