<svg xmlns="http://www.w3.org/2000/svg" id="Layer_1" data-name="Layer 1" viewBox="482.42 482.42 1083.15 1083.15"><defs><style>.cls-1{fill:#fff;}.cls-2{fill:#165fe8;}</style></defs><rect class="cls-1" x="482.42" y="482.42" width="1083.15" height="1083.15" rx="140.98"/><path class="cls-2" d="M719,624v702l108.17,35V1163l242.59,78.69v144a74,74,0,0,0,51.22,70.41l59.68,19.32v-652a69.07,69.07,0,0,0-47.85-65.74Zm350.76,491.72L827.16,1037V786.45l242.59,78.37Z"/><path class="cls-2" d="M1307.76,1391.43l-87.49,84V815.69a69.08,69.08,0,0,1,38.67-62L1329,719.31v622.28A69.11,69.11,0,0,1,1307.76,1391.43Z"/><polygon class="cls-2" points="1306.11 730.53 852.93 580.81 874.96 572.6 1329.01 719.31 1306.11 730.53"/></svg>