<svg xmlns="http://www.w3.org/2000/svg" role="img" viewBox="460.34 460.34 1126.32 1126.32"><defs><style>.cls-2{fill:#fff}</style></defs><rect width="1083.15" height="1083.15" x="482.42" y="482.42" fill="#165fe8" rx="140.98"/><path d="M719 624v702l108.17 35V1163l242.59 78.69v144a74 74 0 0 0 51.22 70.41l59.68 19.32v-652a69.07 69.07 0 0 0-47.85-65.74zm350.76 491.72L827.16 1037V786.45l242.59 78.37zM1307.76 1391.43l-87.49 84V815.69a69.08 69.08 0 0 1 38.67-62L1329 719.31v622.28A69.11 69.11 0 0 1 1307.76 1391.43z" class="cls-2"/><path d="M1306.11 730.53L852.93 580.81 874.96 572.6 1329.01 719.31 1306.11 730.53z" class="cls-2"/></svg>