<svg id="Layer_1" data-name="Layer 1" xmlns="http://www.w3.org/2000/svg" viewBox="0 0 960 212.6"><defs><style>.cls-1{fill:#fff;}.cls-2{fill:#165fe8;}</style></defs><path class="cls-1" d="M317.28,146.31l-5.61-16.15H277.55l-5.61,16.15H257.63l29.08-80.15h15.8l29,80.15ZM281.9,117.8h25.41l-12.7-36.18Z"/><path class="cls-1" d="M340.06,66.16h13.17v80.15H340.06Z"/><path class="cls-1" d="M445.4,66.16h13.16v80.15H445.4V111.62H411.05v34.69H397.88V66.16h13.17V99H445.4Z"/><path class="cls-1" d="M519.13,89.06H531.5v57.25H519.13v-8.25c-4.69,6.53-11.33,9.73-20,9.73a26.79,26.79,0,0,1-20.15-8.7,29.81,29.81,0,0,1-8.35-21.41,29.63,29.63,0,0,1,8.35-21.41,26.79,26.79,0,0,1,20.15-8.7c8.71,0,15.35,3.21,20,9.62ZM501,136A17.6,17.6,0,0,0,514,130.85a18.16,18.16,0,0,0,5.15-13.17A17.72,17.72,0,0,0,514,104.63a18.52,18.52,0,0,0-25.88,0A17.72,17.72,0,0,0,483,117.68a18.16,18.16,0,0,0,5.15,13.17A17.6,17.6,0,0,0,501,136Z"/><path class="cls-1" d="M598,111.16v35.15H585.65V112.42c0-8.59-4.92-13.28-12.82-13.28-8.7,0-14.54,5.38-14.54,16.48v30.69H545.92V89.06h12.37v7.33c3.78-5.84,9.62-8.82,17.74-8.82C589.2,87.57,598,96.5,598,111.16Z"/><path class="cls-1" d="M656.64,66.16H669v80.15H656.64v-8.25c-4.69,6.53-11.34,9.73-20,9.73a26.79,26.79,0,0,1-20.15-8.7,29.81,29.81,0,0,1-8.35-21.41,29.63,29.63,0,0,1,8.35-21.41,26.79,26.79,0,0,1,20.15-8.7c8.7,0,15.35,3.21,20,9.62ZM638.55,136a17.6,17.6,0,0,0,12.94-5.15,18.16,18.16,0,0,0,5.15-13.17,17.72,17.72,0,0,0-5.15-13.05,18.52,18.52,0,0,0-25.88,0,17.72,17.72,0,0,0-5.15,13.05,18.16,18.16,0,0,0,5.15,13.17A17.6,17.6,0,0,0,638.55,136Z"/><path class="cls-1" d="M736,96.27a29.64,29.64,0,0,1,8.36,21.41A29.82,29.82,0,0,1,736,139.09a26.79,26.79,0,0,1-20.15,8.7c-8.7,0-15.34-3.2-20-9.73v8.25H683.43V66.16H695.8v31c4.69-6.41,11.33-9.62,20-9.62A26.79,26.79,0,0,1,736,96.27ZM713.89,136a17.6,17.6,0,0,0,12.94-5.15A18.16,18.16,0,0,0,732,117.68a17.72,17.72,0,0,0-5.15-13.05,18.52,18.52,0,0,0-25.88,0,17.68,17.68,0,0,0-5.15,13.05A18.12,18.12,0,0,0,701,130.85,17.59,17.59,0,0,0,713.89,136Z"/><path class="cls-1" d="M761.17,139.09a30.42,30.42,0,0,1,0-42.82,30.23,30.23,0,0,1,51.64,21.41,30.36,30.36,0,0,1-51.64,21.41Zm21.41-3.32a17.24,17.24,0,0,0,12.71-5.15,18.82,18.82,0,0,0,0-25.87,18.22,18.22,0,0,0-25.41,0,18.79,18.79,0,0,0,0,25.87A17.23,17.23,0,0,0,782.58,135.77Z"/><path class="cls-1" d="M829.64,139.09a30.42,30.42,0,0,1,0-42.82,30.23,30.23,0,0,1,51.64,21.41,30.36,30.36,0,0,1-51.64,21.41Zm21.41-3.32a17.24,17.24,0,0,0,12.71-5.15,18.82,18.82,0,0,0,0-25.87,18.23,18.23,0,0,0-25.42,0,18.82,18.82,0,0,0,0,25.87A17.25,17.25,0,0,0,851.05,135.77Z"/><path class="cls-1" d="M943.11,146.31H928.33l-23.47-26.45v26.45H892.5V66.16h12.36v48.2l22.22-25.3h15.11L917,117.11Z"/><rect class="cls-1" x="16.89" y="12.73" width="187.14" height="187.14" rx="24.36"/><path class="cls-2" d="M58.19,37.19V158.47l18.69,6.05V130.31L118.8,143.9v24.89A12.78,12.78,0,0,0,127.65,181L138,184.29V71.63a11.94,11.94,0,0,0-8.27-11.36Zm60.61,85L76.88,108.54V65.26L118.8,78.8Z"/><path class="cls-2" d="M159.92,169.78,144.8,184.29v-114a11.94,11.94,0,0,1,6.68-10.72l12.11-5.93V161.17A12,12,0,0,1,159.92,169.78Z"/><polygon class="cls-2" points="159.63 55.6 81.34 29.73 85.14 28.31 163.59 53.66 159.63 55.6"/></svg>